<?xml version="1.0" encoding="UTF-8"?>
<svg xmlns="http://www.w3.org/2000/svg" width="1840" height="1040" viewBox="0 0 1840 1040" font-family="'Helvetica Neue', Helvetica, Arial, sans-serif">
  <defs>
    <filter id="shadow" x="-20%" y="-20%" width="140%" height="140%">
      <feDropShadow dx="0" dy="4" stdDeviation="6" flood-color="#1e293b" flood-opacity="0.16"/>
    </filter>
    <filter id="softshadow" x="-20%" y="-20%" width="140%" height="140%">
      <feDropShadow dx="0" dy="1.5" stdDeviation="2" flood-color="#1e293b" flood-opacity="0.10"/>
    </filter>
    <linearGradient id="g1" x1="0" y1="0" x2="1" y2="1"><stop offset="0" stop-color="#60a5fa"/><stop offset="1" stop-color="#1d4ed8"/></linearGradient>
    <linearGradient id="g2" x1="0" y1="0" x2="1" y2="1"><stop offset="0" stop-color="#4ade80"/><stop offset="1" stop-color="#15803d"/></linearGradient>
    <linearGradient id="g3" x1="0" y1="0" x2="1" y2="1"><stop offset="0" stop-color="#fb923c"/><stop offset="1" stop-color="#c2410c"/></linearGradient>
    <linearGradient id="g4" x1="0" y1="0" x2="1" y2="1"><stop offset="0" stop-color="#22d3ee"/><stop offset="1" stop-color="#0e7490"/></linearGradient>
    <linearGradient id="g5" x1="0" y1="0" x2="1" y2="1"><stop offset="0" stop-color="#a78bfa"/><stop offset="1" stop-color="#6d28d9"/></linearGradient>
    <linearGradient id="ghdr" x1="0" y1="0" x2="1" y2="0"><stop offset="0" stop-color="#0b1220"/><stop offset="0.5" stop-color="#1e293b"/><stop offset="1" stop-color="#334155"/></linearGradient>
    <linearGradient id="bg" x1="0" y1="0" x2="0" y2="1"><stop offset="0" stop-color="#f8fafc"/><stop offset="1" stop-color="#eef2f7"/></linearGradient>
    <marker id="ar" viewBox="0 0 10 10" refX="8.5" refY="5" markerWidth="7" markerHeight="7" orient="auto-start-reverse"><path d="M0 0 L10 5 L0 10 z" fill="#475569"/></marker>
    <marker id="arR" viewBox="0 0 10 10" refX="8.5" refY="5" markerWidth="8" markerHeight="8" orient="auto-start-reverse"><path d="M0 0 L10 5 L0 10 z" fill="#dc2626"/></marker>
    <marker id="arY" viewBox="0 0 10 10" refX="8.5" refY="5" markerWidth="7" markerHeight="7" orient="auto-start-reverse"><path d="M0 0 L10 5 L0 10 z" fill="#b45309"/></marker>
  </defs>

  <rect width="1840" height="1040" fill="url(#bg)"/>

  <!-- ============ PHASE GROUPING BANDS (behind stages) ============ -->
  <rect x="44" y="184" width="1052" height="566" rx="20" fill="#eaf1fb" stroke="#bcd0ee" stroke-width="1.5"/>
  <rect x="1108" y="184" width="688" height="566" rx="20" fill="#f3eefc" stroke="#d6c9ef" stroke-width="1.5"/>
  <rect x="470" y="166" width="216" height="26" rx="13" fill="#1e3a8a"/>
  <text x="578" y="184" text-anchor="middle" font-size="12.5" font-weight="bold" fill="#ffffff" letter-spacing="0.5">PART A · Produce the typed IR</text>
  <rect x="1130" y="166" width="282" height="26" rx="13" fill="#5b21b6"/>
  <text x="1271" y="184" text-anchor="middle" font-size="12.5" font-weight="bold" fill="#ffffff" letter-spacing="0.5">PART B · Response &amp; alignment</text>

  <!-- ============ TITLE BAND ============ -->
  <rect x="0" y="0" width="1840" height="82" fill="url(#ghdr)"/>
  <rect x="0" y="78" width="1840" height="4" fill="#3b82f6" opacity="0.5"/>
  <text x="48" y="40" font-size="29" font-weight="bold" fill="#ffffff" letter-spacing="0.3">IssueSpec</text>
  <text x="220" y="40" font-size="20" fill="#cbd5e1">— A Five-Stage Framework for Structured Review-to-Issue Translation</text>
  <text x="48" y="66" font-size="14.5" fill="#94a3b8">Raw app reviews &#8594; typed, developer-routable issue specifications &#8594; aligned, compliant developer responses</text>

  <text x="48" y="124" font-size="13.5" font-weight="bold" fill="#b45309" letter-spacing="1">HUMAN-IN-THE-LOOP CHECKPOINTS</text>

  <!-- column x: 60 410 760 1110 1460 ; w 320 ; body y 196 h 540 -->

  <!-- ===== reusable result-chip y = 668 ; column bottom = 736 ===== -->

  <!-- ============================== STAGE 1 ============================== -->
  <g filter="url(#shadow)"><rect x="60" y="196" width="320" height="540" rx="18" fill="#ffffff" stroke="#1d4ed8" stroke-width="2"/></g>
  <path d="M60 214 a18 18 0 0 1 18 -18 h284 a18 18 0 0 1 18 18 v46 h-320 z" fill="url(#g1)"/>
  <circle cx="96" cy="232" r="17" fill="#ffffff"/>
  <text x="96" y="239" text-anchor="middle" font-size="19" font-weight="bold" fill="#1d4ed8">1</text>
  <!-- icon: tag -->
  <text x="126" y="230" font-size="17" font-weight="bold" fill="#ffffff">Intake &amp; Classification</text>
  <text x="126" y="250" font-size="12.5" fill="#dbeafe">RoBERTa multi-label head</text>

  <g filter="url(#softshadow)"><rect x="82" y="280" width="276" height="92" rx="11" fill="#eff6ff" stroke="#bfdbfe" stroke-width="1.3"/></g>
  <circle cx="96" cy="300" r="3.5" fill="#1d4ed8"/>
  <text x="108" y="305" font-size="13.5" font-weight="bold" fill="#1d4ed8">Three parallel outputs</text>
  <text x="100" y="328" font-size="12" fill="#334155">• Multi-label issue type (7-class)</text>
  <text x="100" y="347" font-size="12" fill="#334155">• Aspect-level sentiment</text>
  <text x="100" y="366" font-size="12" fill="#334155">• Entity extraction (device / OS)</text>

  <g filter="url(#softshadow)"><rect x="82" y="384" width="276" height="98" rx="11" fill="#eff6ff" stroke="#bfdbfe" stroke-width="1.3"/></g>
  <circle cx="96" cy="404" r="3.5" fill="#1d4ed8"/>
  <text x="108" y="409" font-size="13.5" font-weight="bold" fill="#1d4ed8">Verified-anchor correction</text>
  <text x="100" y="432" font-size="12" fill="#334155">• Confident learning (cleanlab)</text>
  <text x="100" y="451" font-size="12" fill="#334155">• 5,230 anchor + 5,008 Maalej</text>
  <text x="100" y="470" font-size="12" fill="#334155">• gate: conf &#8805; 0.70, p &#8804; 0.20</text>

  <g filter="url(#softshadow)"><rect x="82" y="494" width="276" height="76" rx="11" fill="#eff6ff" stroke="#bfdbfe" stroke-width="1.3"/></g>
  <circle cx="96" cy="514" r="3.5" fill="#1d4ed8"/>
  <text x="108" y="519" font-size="13.5" font-weight="bold" fill="#1d4ed8">Compatibility augmentation</text>
  <text x="100" y="542" font-size="12" fill="#334155">• 200 synthetic + 100 mined</text>
  <text x="100" y="561" font-size="12" fill="#334155">• expert-verified</text>

  <rect x="82" y="668" width="276" height="50" rx="11" fill="#dcfce7" stroke="#16a34a" stroke-width="1.5"/>
  <text x="100" y="690" font-size="11.5" font-weight="bold" fill="#15803d">RESULT</text>
  <text x="100" y="708" font-size="12" fill="#166534">Cohen's &#954;: 0.16 &#8594; 0.59 (Table 8)</text>

  <!-- ============================== STAGE 2 ============================== -->
  <g filter="url(#shadow)"><rect x="410" y="196" width="320" height="540" rx="18" fill="#ffffff" stroke="#15803d" stroke-width="2"/></g>
  <path d="M410 214 a18 18 0 0 1 18 -18 h284 a18 18 0 0 1 18 18 v46 h-320 z" fill="url(#g2)"/>
  <circle cx="446" cy="232" r="17" fill="#ffffff"/>
  <text x="446" y="239" text-anchor="middle" font-size="19" font-weight="bold" fill="#15803d">2</text>
  <text x="476" y="230" font-size="17" font-weight="bold" fill="#ffffff">Knowledge Graph</text>
  <text x="476" y="250" font-size="12.5" fill="#dcfce7">three-layer, aspect-grounded</text>

  <g filter="url(#softshadow)"><rect x="432" y="280" width="276" height="80" rx="11" fill="#f0fdf4" stroke="#bbf7d0" stroke-width="1.3"/></g>
  <circle cx="446" cy="300" r="3.5" fill="#15803d"/>
  <text x="458" y="305" font-size="13.5" font-weight="bold" fill="#15803d">Layer 1 &#183; Build graph</text>
  <text x="450" y="328" font-size="12" fill="#334155">• Reviews, aspects, entities = nodes</text>
  <text x="450" y="347" font-size="12" fill="#334155">• Sentiment + temporal edges</text>

  <g filter="url(#softshadow)"><rect x="432" y="372" width="276" height="98" rx="11" fill="#f0fdf4" stroke="#bbf7d0" stroke-width="1.3"/></g>
  <circle cx="446" cy="392" r="3.5" fill="#15803d"/>
  <text x="458" y="397" font-size="13.5" font-weight="bold" fill="#15803d">Layer 2 &#183; Cluster</text>
  <text x="450" y="420" font-size="12" fill="#334155">• Group by aspect, then sub-cluster</text>
  <text x="450" y="439" font-size="12" fill="#334155">• SBERT + UMAP + HDBSCAN</text>
  <text x="450" y="458" font-size="12" fill="#334155">• 605 sub-clusters vs 194 flat</text>

  <g filter="url(#softshadow)"><rect x="432" y="482" width="276" height="80" rx="11" fill="#f0fdf4" stroke="#bbf7d0" stroke-width="1.3"/></g>
  <circle cx="446" cy="502" r="3.5" fill="#15803d"/>
  <text x="458" y="507" font-size="13.5" font-weight="bold" fill="#15803d">Layer 3 &#183; Prioritize</text>
  <text x="450" y="530" font-size="12" fill="#334155">• PageRank on bipartite graph</text>
  <text x="450" y="549" font-size="12" fill="#334155">• top-5 aspects = 74% of mentions</text>

  <rect x="432" y="668" width="276" height="50" rx="11" fill="#dcfce7" stroke="#16a34a" stroke-width="1.5"/>
  <text x="450" y="690" font-size="11.5" font-weight="bold" fill="#15803d">RESULT</text>
  <text x="450" y="708" font-size="12" fill="#166534">5.4&#215; lower DB, 1.9&#215; higher CH</text>

  <!-- ============================== STAGE 3 ============================== -->
  <g filter="url(#shadow)"><rect x="760" y="196" width="320" height="540" rx="18" fill="#ffffff" stroke="#c2410c" stroke-width="2"/></g>
  <path d="M760 214 a18 18 0 0 1 18 -18 h284 a18 18 0 0 1 18 18 v46 h-320 z" fill="url(#g3)"/>
  <circle cx="796" cy="232" r="17" fill="#ffffff"/>
  <text x="796" y="239" text-anchor="middle" font-size="19" font-weight="bold" fill="#c2410c">3</text>
  <text x="826" y="230" font-size="17" font-weight="bold" fill="#ffffff">IR Translation</text>
  <text x="826" y="250" font-size="12.5" fill="#ffedd5">LLM agent fills typed IR</text>

  <g filter="url(#softshadow)"><rect x="782" y="280" width="276" height="56" rx="11" fill="#fff7ed" stroke="#fed7aa" stroke-width="1.3"/></g>
  <circle cx="796" cy="300" r="3.5" fill="#c2410c"/>
  <text x="808" y="305" font-size="13.5" font-weight="bold" fill="#c2410c">LLM agent</text>
  <text x="800" y="327" font-size="12" fill="#334155">reads ~5-review cluster &amp; schema</text>

  <g filter="url(#softshadow)"><rect x="782" y="348" width="276" height="128" rx="11" fill="#fff7ed" stroke="#fed7aa" stroke-width="1.3"/></g>
  <circle cx="796" cy="368" r="3.5" fill="#c2410c"/>
  <text x="808" y="373" font-size="13.5" font-weight="bold" fill="#c2410c">5 standards-body templates</text>
  <text x="800" y="396" font-size="12" fill="#334155">• bug &#8594; Zimmermann (2010)</text>
  <text x="800" y="415" font-size="12" fill="#334155">• feature &#8594; Cohn + BDD</text>
  <text x="800" y="434" font-size="12" fill="#334155">• perf &#8594; ISO/IEC 25010</text>
  <text x="800" y="453" font-size="12" fill="#334155">• usability &#8594; Nielsen-10</text>
  <text x="800" y="470" font-size="12" fill="#334155">• compat &#8594; device-OS matrix</text>

  <g filter="url(#softshadow)"><rect x="782" y="488" width="276" height="78" rx="11" fill="#fff7ed" stroke="#fed7aa" stroke-width="1.3"/></g>
  <circle cx="796" cy="508" r="3.5" fill="#c2410c"/>
  <text x="808" y="513" font-size="13.5" font-weight="bold" fill="#c2410c">SpecCov faithfulness check</text>
  <text x="800" y="536" font-size="12" fill="#334155">• extractive-coverage scorer</text>
  <text x="800" y="555" font-size="12" fill="#334155">• taxonomy 4.16 vs human 4.00</text>

  <rect x="782" y="668" width="276" height="50" rx="11" fill="#dcfce7" stroke="#16a34a" stroke-width="1.5"/>
  <text x="800" y="690" font-size="11.5" font-weight="bold" fill="#15803d">RESULT</text>
  <text x="800" y="708" font-size="12" fill="#166534">template-fill 0.96 vs 0.53; 3.89/5</text>

  <!-- ============================== STAGE 4 ============================== -->
  <g filter="url(#shadow)"><rect x="1110" y="196" width="320" height="540" rx="18" fill="#ffffff" stroke="#0e7490" stroke-width="2"/></g>
  <path d="M1110 214 a18 18 0 0 1 18 -18 h284 a18 18 0 0 1 18 18 v46 h-320 z" fill="url(#g4)"/>
  <circle cx="1146" cy="232" r="17" fill="#ffffff"/>
  <text x="1146" y="239" text-anchor="middle" font-size="19" font-weight="bold" fill="#0e7490">4</text>
  <text x="1176" y="230" font-size="17" font-weight="bold" fill="#ffffff">Spec-aware RAG</text>
  <text x="1176" y="250" font-size="12.5" fill="#cffafe">developer-facing response</text>

  <g filter="url(#softshadow)"><rect x="1132" y="280" width="276" height="138" rx="11" fill="#ecfeff" stroke="#a5f3fc" stroke-width="1.3"/></g>
  <circle cx="1146" cy="300" r="3.5" fill="#0e7490"/>
  <text x="1158" y="305" font-size="13.5" font-weight="bold" fill="#0e7490">Five fixed RAG sources</text>
  <text x="1150" y="328" font-size="12" fill="#334155">• App changelogs (60)</text>
  <text x="1150" y="347" font-size="12" fill="#334155">• FAQ / help docs (40)</text>
  <text x="1150" y="366" font-size="12" fill="#334155">• Past review-response (10,000)</text>
  <text x="1150" y="385" font-size="12" fill="#334155">• Semantic neighbors (5,000)</text>
  <text x="1150" y="404" font-size="12" fill="#334155">• Validated IssueSpec (per query)</text>

  <g filter="url(#softshadow)"><rect x="1132" y="430" width="276" height="56" rx="11" fill="#ecfeff" stroke="#a5f3fc" stroke-width="1.3"/></g>
  <circle cx="1146" cy="450" r="3.5" fill="#0e7490"/>
  <text x="1158" y="455" font-size="13.5" font-weight="bold" fill="#0e7490">ChromaDB index</text>
  <text x="1150" y="477" font-size="12" fill="#334155">15,100 docs; hybrid retrieval</text>

  <g filter="url(#softshadow)"><rect x="1132" y="498" width="276" height="56" rx="11" fill="#ecfeff" stroke="#a5f3fc" stroke-width="1.3"/></g>
  <circle cx="1146" cy="518" r="3.5" fill="#0e7490"/>
  <text x="1158" y="523" font-size="13.5" font-weight="bold" fill="#0e7490">Response generator (LLM)</text>
  <text x="1150" y="545" font-size="12" fill="#334155">spec-aware, cited, on-tone reply</text>

  <rect x="1132" y="668" width="276" height="50" rx="11" fill="#dcfce7" stroke="#16a34a" stroke-width="1.5"/>
  <text x="1150" y="690" font-size="11.5" font-weight="bold" fill="#15803d">RESULT</text>
  <text x="1150" y="708" font-size="12" fill="#166534">+2.36 Likert over RAG-only (p&lt;0.001)</text>

  <!-- ============================== STAGE 5 ============================== -->
  <g filter="url(#shadow)"><rect x="1460" y="196" width="320" height="540" rx="18" fill="#ffffff" stroke="#6d28d9" stroke-width="2"/></g>
  <path d="M1460 214 a18 18 0 0 1 18 -18 h284 a18 18 0 0 1 18 18 v46 h-320 z" fill="url(#g5)"/>
  <circle cx="1496" cy="232" r="17" fill="#ffffff"/>
  <text x="1496" y="239" text-anchor="middle" font-size="19" font-weight="bold" fill="#6d28d9">5</text>
  <text x="1526" y="230" font-size="17" font-weight="bold" fill="#ffffff">CMDP-RLHF</text>
  <text x="1526" y="250" font-size="12.5" fill="#ede9fe">constrained alignment</text>

  <g filter="url(#softshadow)"><rect x="1482" y="280" width="276" height="68" rx="11" fill="#f5f3ff" stroke="#ddd6fe" stroke-width="1.3"/></g>
  <text x="1620" y="306" text-anchor="middle" font-size="14" font-weight="bold" fill="#6d28d9">max&#8201;E[R]   s.t.   E[C] &#8804; &#964;</text>
  <text x="1620" y="330" text-anchor="middle" font-size="11.5" fill="#475569">Lagrangian: L(&#952;,&#955;) = E[R &#8722; &#955;(C &#8722; &#964;)]</text>

  <g filter="url(#softshadow)"><rect x="1482" y="360" width="276" height="56" rx="11" fill="#f5f3ff" stroke="#ddd6fe" stroke-width="1.3"/></g>
  <circle cx="1496" cy="380" r="3.5" fill="#6d28d9"/>
  <text x="1508" y="385" font-size="13.5" font-weight="bold" fill="#6d28d9">Trainer chain</text>
  <text x="1500" y="407" font-size="12" fill="#334155">KTO &#8594; DPO &#8594; Constrained PPO</text>

  <g filter="url(#softshadow)"><rect x="1482" y="428" width="276" height="118" rx="11" fill="#f5f3ff" stroke="#ddd6fe" stroke-width="1.3"/></g>
  <circle cx="1496" cy="448" r="3.5" fill="#6d28d9"/>
  <text x="1508" y="453" font-size="13.5" font-weight="bold" fill="#6d28d9">4 compliance constraints</text>
  <text x="1500" y="476" font-size="12" fill="#334155">• Promise safety</text>
  <text x="1500" y="495" font-size="12" fill="#334155">• Information leakage</text>
  <text x="1500" y="514" font-size="12" fill="#334155">• Tone guidelines</text>
  <text x="1500" y="533" font-size="12" fill="#334155">• Legal safety</text>

  <rect x="1482" y="668" width="276" height="50" rx="11" fill="#dcfce7" stroke="#16a34a" stroke-width="1.5"/>
  <text x="1500" y="690" font-size="11.5" font-weight="bold" fill="#15803d">RESULT</text>
  <text x="1500" y="708" font-size="12" fill="#166534">aligned, deployable generator</text>

  <!-- ============ HEADER ICONS (minimal, white) ============ -->
  <g fill="none" stroke="#ffffff" stroke-width="2.2" stroke-linejoin="round" stroke-linecap="round">
    <!-- S1: funnel (intake) -->
    <path d="M333 218 h30 l-11 13 v12 l-8 4 v-16 z"/>
    <!-- S2: graph nodes -->
    <line x1="690" y1="220" x2="704" y2="216"/><line x1="704" y1="216" x2="700" y2="238"/><line x1="690" y1="220" x2="700" y2="238"/>
    <circle cx="690" cy="220" r="4.2" fill="#ffffff"/><circle cx="705" cy="215" r="4.2" fill="#ffffff"/><circle cx="700" cy="239" r="4.2" fill="#ffffff"/>
    <!-- S3: document -->
    <path d="M1038 214 h16 l6 6 v22 h-22 z"/><line x1="1043" y1="226" x2="1055" y2="226"/><line x1="1043" y1="232" x2="1055" y2="232"/>
    <!-- S4: database cylinder -->
    <ellipse cx="1396" cy="216" rx="13" ry="4.5"/><path d="M1383 216 v18 a13 4.5 0 0 0 26 0 v-18"/><path d="M1383 225 a13 4.5 0 0 0 26 0"/>
    <!-- S5: shield -->
    <path d="M1748 213 l13 5 v9 c0 8 -6 13 -13 16 c-7 -3 -13 -8 -13 -16 v-9 z"/>
  </g>

  <!-- ============ INTER-STAGE FLOW ARROWS ============ -->
  <g stroke="#475569" stroke-width="3" fill="none">
    <line x1="380" y1="466" x2="408" y2="466" marker-end="url(#ar)"/>
    <line x1="730" y1="466" x2="758" y2="466" marker-end="url(#ar)"/>
    <line x1="1080" y1="466" x2="1108" y2="466" marker-end="url(#ar)"/>
    <line x1="1430" y1="466" x2="1458" y2="466" marker-end="url(#ar)"/>
  </g>
  <g font-size="10.5" fill="#475569" font-style="italic" text-anchor="middle">
    <rect x="356" y="438" width="78" height="30" rx="7" fill="#ffffff" stroke="#cbd5e1" filter="url(#softshadow)"/>
    <text x="395" y="450">labels +</text><text x="395" y="462">aspects</text>
    <rect x="706" y="438" width="78" height="30" rx="7" fill="#ffffff" stroke="#cbd5e1" filter="url(#softshadow)"/>
    <text x="745" y="450">prioritized</text><text x="745" y="462">clusters</text>
    <rect x="1056" y="438" width="78" height="30" rx="7" fill="#ffffff" stroke="#cbd5e1" filter="url(#softshadow)"/>
    <text x="1095" y="450">validated</text><text x="1095" y="462">IssueSpec</text>
    <rect x="1406" y="438" width="78" height="30" rx="7" fill="#ffffff" stroke="#cbd5e1" filter="url(#softshadow)"/>
    <text x="1445" y="450">draft</text><text x="1445" y="462">response</text>
  </g>

  <!-- ============ HITL CHECKPOINTS ============ -->
  <g>
    <rect x="137" y="134" width="172" height="44" rx="10" fill="#fffbeb" stroke="#d97706" stroke-width="1.8" stroke-dasharray="6 3" filter="url(#softshadow)"/>
    <text x="223" y="153" text-anchor="middle" font-size="12.5" font-weight="bold" fill="#b45309">HITL-1 &#183; Annotation</text>
    <text x="223" y="170" text-anchor="middle" font-size="11" fill="#92400e">low-confidence routing</text>
    <line x1="223" y1="178" x2="223" y2="195" stroke="#b45309" stroke-width="1.8" stroke-dasharray="4 3" marker-end="url(#arY)"/>
  </g>
  <g>
    <rect x="837" y="134" width="172" height="44" rx="10" fill="#fffbeb" stroke="#d97706" stroke-width="1.8" stroke-dasharray="6 3" filter="url(#softshadow)"/>
    <text x="923" y="153" text-anchor="middle" font-size="12.5" font-weight="bold" fill="#b45309">HITL-2 &#183; Spec rubric</text>
    <text x="923" y="170" text-anchor="middle" font-size="11" fill="#92400e">5-dimension validation</text>
    <line x1="923" y1="178" x2="923" y2="195" stroke="#b45309" stroke-width="1.8" stroke-dasharray="4 3" marker-end="url(#arY)"/>
  </g>
  <g>
    <rect x="1537" y="134" width="172" height="44" rx="10" fill="#fffbeb" stroke="#d97706" stroke-width="1.8" stroke-dasharray="6 3" filter="url(#softshadow)"/>
    <text x="1623" y="153" text-anchor="middle" font-size="12.5" font-weight="bold" fill="#b45309">HITL-3 &#183; Dual feedback</text>
    <text x="1623" y="170" text-anchor="middle" font-size="11" fill="#92400e">quality + compliance</text>
    <line x1="1623" y1="178" x2="1623" y2="195" stroke="#b45309" stroke-width="1.8" stroke-dasharray="4 3" marker-end="url(#arY)"/>
  </g>

  <!-- ============ FEEDBACK LOOP ============ -->
  <path d="M 1623 736 L 1623 780 L 223 780 L 223 738" fill="none" stroke="#dc2626" stroke-width="3" stroke-dasharray="9 5" marker-end="url(#arR)"/>
  <rect x="630" y="765" width="586" height="30" rx="9" fill="#fef2f2" stroke="#dc2626" stroke-width="1.3"/>
  <text x="923" y="785" text-anchor="middle" font-size="12.5" font-weight="bold" fill="#dc2626">Closed-loop feedback&#8201;:&#8201;Stage 5 corrections retrain Stage 1 &amp; refine Stage 3 prompts</text>

  <!-- ============ LEGEND ============ -->
  <g filter="url(#softshadow)"><rect x="60" y="828" width="1720" height="172" rx="16" fill="#ffffff" stroke="#e2e8f0" stroke-width="1.5"/></g>
  <rect x="60" y="828" width="8" height="172" rx="4" fill="#3b82f6"/>
  <text x="92" y="862" font-size="16" font-weight="bold" fill="#0f172a">Legend</text>

  <line x1="92" y1="892" x2="146" y2="892" stroke="#475569" stroke-width="3" marker-end="url(#ar)"/>
  <text x="158" y="897" font-size="13.5" fill="#1e293b">Typed intermediate passed between stages (information-extraction cascade)</text>

  <line x1="92" y1="926" x2="146" y2="926" stroke="#b45309" stroke-width="2" stroke-dasharray="5 3" marker-end="url(#arY)"/>
  <text x="158" y="931" font-size="13.5" fill="#1e293b">Human-in-the-loop checkpoint at high-uncertainty junctures (selective prediction)</text>

  <line x1="92" y1="960" x2="146" y2="960" stroke="#dc2626" stroke-width="3" stroke-dasharray="9 5" marker-end="url(#arR)"/>
  <text x="158" y="965" font-size="13.5" fill="#1e293b">Feedback loop: corrections propagate backward to retrain upstream stages</text>

  <rect x="948" y="880" width="30" height="20" rx="6" fill="#dcfce7" stroke="#16a34a" stroke-width="1.3"/>
  <text x="990" y="896" font-size="13.5" fill="#1e293b"><tspan font-weight="bold">Green chips</tspan> = headline result per stage, traceable to a paper table.</text>

  <text x="948" y="934" font-size="13.5" fill="#1e293b"><tspan font-weight="bold">Released artifacts:</tspan> V1-V5 classifiers, 5,230 verified anchor, 490 gold,</text>
  <text x="948" y="962" font-size="13.5" fill="#1e293b">SpecCov scorer, 100-cluster benchmark, CMDP-RLHF testbed, 4-LLM replication.</text>
</svg>
